<svg xmlns="http://www.w3.org/2000/svg" xmlns:xlink="http://www.w3.org/1999/xlink" width="32" height="32" viewBox="0 0 32 32">
    <defs>
        <path id="prefix__a" d="M0 0.2L1.834 0.2 1.834 5.759 0 5.759z"/>
        <path id="prefix__c" d="M0.164 0.271L5.742 0.271 5.742 2 0.164 2z"/>
        <path id="prefix__e" d="M0.066 0.141L4.926 0.141 4.926 1.87 0.066 1.87z"/>
    </defs>
    <g fill="none" fill-rule="evenodd">
        <path fill="#3E4D73" d="M8.97 20.653c-.091.369-.382.458-.647.198l-5.157-5.044c-.265-.26-.206-.587.13-.728l7.234-3.032c.337-.14.539.045.448.413L8.97 20.653z"/>
        <path fill="#536696" d="M4.865 24.863c-.25.25-.504.147-.563-.23l-1.29-8.275c-.058-.377.092-.472.334-.21l4.477 4.845c.242.262.235.682-.016.932l-2.942 2.938zM10.864 11.186c.238.286.156.635-.184.775l-7.252 2.99c-.34.14-.514-.034-.386-.388L6.02 6.306c.127-.353.427-.41.666-.123l4.178 5.003zM2.982 23.72c.061.335-.041.375-.227.09L.13 19.76c-.186-.286-.17-.744.034-1.017l1.172-1.568c.205-.273.421-.222.482.113l1.164 6.43zM2.423 13.761c-.125.321-.321.318-.435-.007l-.946-2.701c-.114-.326.011-.78.278-1.01l3.372-2.91c.267-.23.383-.155.257.166l-2.526 6.462z"/>
        <g transform="translate(0 12)">
            <mask id="prefix__b" fill="#fff">
                <use xlink:href="#prefix__a"/>
            </mask>
            <path fill="#536696" d="M1.773 2.891c.136.373.037.936-.22 1.251L.395 5.56c-.258.314-.432.252-.388-.139L.562.503C.606.112.754.097.889.47l.884 2.421z" mask="url(#prefix__b)"/>
        </g>
        <path fill="#536696" d="M4.955 4.05c.116.122 0 .395-.26.607L3.226 5.86c-.26.212-.3.178-.092-.075l1.232-1.497c.208-.253.474-.36.59-.239M14.903 28.773c-.187.293-.512.304-.721.024L10.1 23.352c-.21-.28-.08-.537.288-.572l8.2-.776c.368-.035.517.177.33.47l-4.016 6.299zM12.9 28.639c.2.291.09.436-.246.322l-7.361-2.488c-.336-.113-.391-.395-.122-.625l3.154-2.703c.27-.23.654-.18.855.11l3.72 5.384z"/>
        <path fill="#5FC4D7" d="M18.872 19.559c.237.28.135.541-.225.58l-8.136.857c-.36.038-.581-.224-.49-.583l2.035-8.096c.09-.359.358-.423.594-.142l6.222 7.384z"/>
        <path fill="#536696" d="M24.87 26.731c.237.26.14.532-.214.602l-8.264 1.652c-.354.07-.494-.114-.312-.41l3.898-6.332c.183-.296.525-.326.761-.066l4.132 4.554zM10.982 30.898c-.312.176-.786.119-1.052-.128l-3.763-3.49c-.265-.246-.208-.35.128-.23l6.44 2.298c.336.12.355.362.043.539l-1.796 1.011zM20.148 31.812c-.29.202-.802.249-1.136.104l-2.778-1.197c-.334-.145-.307-.316.06-.382l7.384-1.318c.367-.066.43.046.14.247l-3.67 2.546z"/>
        <g transform="translate(12 30)">
            <mask id="prefix__d" fill="#fff">
                <use xlink:href="#prefix__c"/>
            </mask>
            <path fill="#536696" d="M.485 1.75c-.392-.02-.43-.203-.084-.407L1.96.428c.346-.203.916-.21 1.267-.015L5.5 1.679c.35.196.315.339-.077.32l-4.939-.25z" mask="url(#prefix__d)"/>
        </g>
        <path fill="#536696" d="M25.953 28.082c.142.16-.05.45-.425.646l-2.22 1.155c-.375.195-.413.14-.084-.122l1.873-1.493c.33-.263.715-.347.856-.186"/>
        <path fill="#3E4D73" d="M21.47 19.953c-.337.141-.539-.045-.449-.413l2.01-8.193c.09-.369.38-.458.646-.198l5.157 5.044c.265.26.206.587-.13.728l-7.234 3.032z"/>
        <path fill="#536696" d="M28.987 15.641c.06.378-.09.473-.333.211l-4.477-4.845c-.242-.262-.235-.682.016-.932l2.941-2.938c.251-.251.505-.147.564.23l1.29 8.274zM25.98 26.694c-.128.354-.427.409-.666.123l-4.177-5.004c-.24-.286-.157-.634.183-.774l7.253-2.99c.34-.14.513.034.385.388l-2.978 8.257zM31.87 12.239c.186.286.17.744-.034 1.017l-1.172 1.568c-.205.273-.421.222-.482-.113l-1.165-6.43c-.06-.336.042-.376.228-.09l2.625 4.048zM30.958 21.947c.114.326-.012.78-.278 1.01l-3.372 2.91c-.267.23-.383.155-.257-.166l2.526-6.462c.125-.321.321-.318.435.007l.946 2.701zM31.387 19.727c-.048.352-.209.365-.357.03l-.963-2.177c-.149-.336-.04-.842.24-1.125l1.262-1.274c.281-.283.472-.228.424.124l-.606 4.422zM26.635 27.711c-.208.253-.474.36-.59.239-.116-.122 0-.395.26-.607l1.47-1.204c.26-.212.3-.178.092.075l-1.232 1.497z"/>
        <path fill="#3E4D73" d="M21.9 9.648c.21.28.08.537-.29.572l-8.2.776c-.368.035-.516-.176-.33-.47l4.017-6.298c.187-.294.512-.305.722-.025l4.08 5.445z"/>
        <path fill="#536696" d="M23.674 8.855c-.269.23-.653.18-.854-.11L19.1 3.36c-.2-.29-.09-.436.246-.322l7.361 2.488c.337.113.391.395.122.625l-3.155 2.703zM19.944 19.683c-.09.359-.358.423-.594.142l-6.222-7.384c-.237-.28-.135-.541.225-.58l8.136-.857c.36-.038.581.224.49.583l-2.035 8.096zM12.022 9.757c-.183.296-.526.326-.762.066L7.13 5.269c-.237-.26-.14-.531.214-.602l8.264-1.652c.354-.07.494.114.312.41l-3.898 6.332zM19.265 2.652c-.336-.12-.355-.362-.042-.538l1.795-1.012c.313-.176.786-.118 1.052.128l3.763 3.49c.266.246.208.35-.128.23l-6.44-2.298zM8.322 3.981c-.367.066-.43-.046-.14-.247l3.67-2.546c.29-.202.801-.249 1.136-.104l2.778 1.198c.334.144.307.315-.06.38l-7.384 1.32z"/>
        <g transform="translate(14)">
            <mask id="prefix__f" fill="#fff">
                <use xlink:href="#prefix__e"/>
            </mask>
            <path fill="#536696" d="M3.363 1.713c-.302.204-.799.21-1.104.015L.277.461C-.028.266.002.123.344.143l4.302.249c.342.02.376.203.074.406l-1.357.915z" mask="url(#prefix__f)"/>
        </g>
        <path fill="#536696" d="M6.903 3.733c-.33.262-.714.346-.856.186-.142-.16.05-.452.425-.647l2.22-1.155c.375-.195.413-.14.084.122L6.903 3.733zM4.05 27.045c.122-.116.395 0 .607.259l1.204 1.471c.212.26.178.3-.075.092l-1.497-1.232c-.253-.208-.36-.474-.239-.59M28.081 6.047c.16-.142.452.05.647.424l1.155 2.22c.195.376.14.414-.122.085l-1.494-1.873c-.262-.33-.346-.715-.186-.856M27.711 4.365c.253.208.36.474.239.59-.122.116-.395 0-.607-.259L26.14 3.224c-.212-.258-.178-.3.075-.091l1.497 1.232zM3.733 25.097c.262.33.346.715.186.856-.16.142-.452-.05-.647-.425l-1.155-2.22c-.195-.375-.14-.413.122-.084l1.494 1.873z"/>
    </g>
</svg>
