<svg xmlns="http://www.w3.org/2000/svg" width="50" height="52" viewBox="0 0 50 52">
    <g>
        <path d="M49.59 16.642L25.454.14c-.274-.187-.634-.187-.908 0L.41 16.642c-.222.151-.354.403-.354.673v33.87c0 .45.361.815.808.815h48.272c.447 0 .808-.364.808-.814v-33.87c0-.27-.132-.523-.354-.674zm-30.57 33.73h-8.728v-8.794h1.832v4.397c0 .45.361.814.808.814h3.448c.446 0 .808-.364.808-.814v-4.397h1.832v8.794zM8.568 20.843v-1.845h32.864v1.845H8.568zm5.172 24.318v-3.583h1.832v3.583H13.74zm5.28-5.211h-8.728v-8.793h1.832v4.396c0 .45.361.815.808.815h3.448c.446 0 .808-.365.808-.815v-4.396h1.832v8.793zm-5.28-5.211v-3.582h1.832v3.582H13.74zm15.624 15.633h-8.728v-8.794h1.832v4.397c0 .45.362.814.808.814h3.448c.446 0 .808-.364.808-.814v-4.397h1.832v8.794zm-5.28-5.211v-3.583h1.832v3.583h-1.832zm24.244 5.21h-7.004V32.949c0-.45-.361-.814-.808-.814-.446 0-.808.364-.808.814v17.424H30.98v-9.608c0-.45-.361-.814-.808-.814h-9.536v-9.608c0-.45-.362-.814-.808-.814h-9.536v-7.056h29.416v7.002c0 .45.362.814.808.814.447 0 .808-.364.808-.814v-7.002h.916c.447 0 .808-.365.808-.814v-3.474c0-.45-.361-.814-.808-.814H7.76c-.446 0-.808.364-.808.814v3.474c0 .45.361.814.808.814h.916v27.9H1.672V17.747L25 1.798l23.328 15.949v32.625z"/>
        <path d="M28.448 6.948h-6.896c-.446 0-.808.364-.808.814 0 .45.362.814.808.814h6.896c.446 0 .808-.364.808-.814 0-.45-.362-.814-.808-.814zM28.448 10.422h-6.896c-.446 0-.808.364-.808.814 0 .45.362.814.808.814h6.896c.446 0 .808-.364.808-.814 0-.45-.362-.814-.808-.814zM28.448 13.896h-6.896c-.446 0-.808.364-.808.814 0 .45.362.814.808.814h6.896c.446 0 .808-.364.808-.814 0-.45-.362-.814-.808-.814zM16.38 37.345h-3.448c-.446 0-.808.364-.808.814 0 .45.361.814.808.814h3.448c.446 0 .808-.365.808-.814 0-.45-.362-.814-.808-.814zM16.38 47.766h-3.448c-.446 0-.808.365-.808.814 0 .45.361.815.808.815h3.448c.446 0 .808-.365.808-.815 0-.45-.362-.814-.808-.814zM26.724 47.766h-3.448c-.446 0-.808.365-.808.814 0 .45.362.815.808.815h3.448c.446 0 .808-.365.808-.815 0-.45-.362-.814-.808-.814z"/>
    </g>
</svg>
